<mxfile host="app.diagrams.net" modified="2024-06-28T09:14:13.199Z" agent="Mozilla/5.0 (Windows NT 10.0; Win64; x64) AppleWebKit/537.36 (KHTML, like Gecko) Chrome/126.0.0.0 Safari/537.36" etag="mDnHtKqtSpssQKwXSC3e" version="24.6.4" type="github">
  <diagram name="Page-1" id="a_KJF-R7G64jecmjtPI3">
    <mxGraphModel dx="1035" dy="1670" grid="1" gridSize="10" guides="1" tooltips="1" connect="1" arrows="1" fold="1" page="1" pageScale="1" pageWidth="827" pageHeight="1169" math="0" shadow="0">
      <root>
        <mxCell id="0" />
        <mxCell id="1" parent="0" />
        <mxCell id="jpVJKen0Qmn309Zhzjyx-4" value="" style="rounded=0;whiteSpace=wrap;html=1;" parent="1" vertex="1">
          <mxGeometry y="-460" width="1070" height="2190" as="geometry" />
        </mxCell>
        <mxCell id="jpVJKen0Qmn309Zhzjyx-5" value="" style="rounded=0;whiteSpace=wrap;html=1;fillColor=#f5f5f5;fontColor=#333333;strokeColor=#666666;" parent="1" vertex="1">
          <mxGeometry x="145" y="-370" width="785" height="2080" as="geometry" />
        </mxCell>
        <mxCell id="jpVJKen0Qmn309Zhzjyx-6" value="&lt;font style=&quot;font-size: 24px;&quot;&gt;SystÃ¨me&lt;/font&gt;" style="text;html=1;align=center;verticalAlign=middle;whiteSpace=wrap;rounded=0;" parent="1" vertex="1">
          <mxGeometry x="480" y="-430" width="110" height="30" as="geometry" />
        </mxCell>
        <mxCell id="jpVJKen0Qmn309Zhzjyx-43" style="edgeStyle=orthogonalEdgeStyle;rounded=0;orthogonalLoop=1;jettySize=auto;html=1;" parent="1" source="jpVJKen0Qmn309Zhzjyx-7" target="jpVJKen0Qmn309Zhzjyx-10" edge="1">
          <mxGeometry relative="1" as="geometry" />
        </mxCell>
        <mxCell id="jpVJKen0Qmn309Zhzjyx-44" style="edgeStyle=orthogonalEdgeStyle;rounded=0;orthogonalLoop=1;jettySize=auto;html=1;" parent="1" source="jpVJKen0Qmn309Zhzjyx-7" target="jpVJKen0Qmn309Zhzjyx-11" edge="1">
          <mxGeometry relative="1" as="geometry" />
        </mxCell>
        <mxCell id="jpVJKen0Qmn309Zhzjyx-45" style="edgeStyle=orthogonalEdgeStyle;rounded=0;orthogonalLoop=1;jettySize=auto;html=1;entryX=0;entryY=0.5;entryDx=0;entryDy=0;" parent="1" source="jpVJKen0Qmn309Zhzjyx-7" target="jpVJKen0Qmn309Zhzjyx-12" edge="1">
          <mxGeometry relative="1" as="geometry" />
        </mxCell>
        <mxCell id="jpVJKen0Qmn309Zhzjyx-46" style="edgeStyle=orthogonalEdgeStyle;rounded=0;orthogonalLoop=1;jettySize=auto;html=1;entryX=0;entryY=0.5;entryDx=0;entryDy=0;" parent="1" source="jpVJKen0Qmn309Zhzjyx-7" target="jpVJKen0Qmn309Zhzjyx-13" edge="1">
          <mxGeometry relative="1" as="geometry" />
        </mxCell>
        <mxCell id="jpVJKen0Qmn309Zhzjyx-7" value="Apprenants" style="shape=umlActor;verticalLabelPosition=bottom;verticalAlign=top;html=1;outlineConnect=0;" parent="1" vertex="1">
          <mxGeometry x="60" y="130" width="30" height="60" as="geometry" />
        </mxCell>
        <mxCell id="jpVJKen0Qmn309Zhzjyx-47" style="edgeStyle=orthogonalEdgeStyle;rounded=0;orthogonalLoop=1;jettySize=auto;html=1;entryX=1;entryY=0.5;entryDx=0;entryDy=0;" parent="1" source="jpVJKen0Qmn309Zhzjyx-8" target="jpVJKen0Qmn309Zhzjyx-30" edge="1">
          <mxGeometry relative="1" as="geometry" />
        </mxCell>
        <mxCell id="jpVJKen0Qmn309Zhzjyx-48" style="edgeStyle=orthogonalEdgeStyle;rounded=0;orthogonalLoop=1;jettySize=auto;html=1;entryX=1;entryY=0.5;entryDx=0;entryDy=0;" parent="1" source="jpVJKen0Qmn309Zhzjyx-8" target="jpVJKen0Qmn309Zhzjyx-31" edge="1">
          <mxGeometry relative="1" as="geometry" />
        </mxCell>
        <mxCell id="jpVJKen0Qmn309Zhzjyx-50" style="edgeStyle=orthogonalEdgeStyle;rounded=0;orthogonalLoop=1;jettySize=auto;html=1;" parent="1" source="jpVJKen0Qmn309Zhzjyx-8" target="jpVJKen0Qmn309Zhzjyx-11" edge="1">
          <mxGeometry relative="1" as="geometry" />
        </mxCell>
        <mxCell id="jpVJKen0Qmn309Zhzjyx-51" style="edgeStyle=orthogonalEdgeStyle;rounded=0;orthogonalLoop=1;jettySize=auto;html=1;entryX=1;entryY=0.5;entryDx=0;entryDy=0;" parent="1" source="jpVJKen0Qmn309Zhzjyx-8" target="jpVJKen0Qmn309Zhzjyx-13" edge="1">
          <mxGeometry relative="1" as="geometry">
            <Array as="points">
              <mxPoint x="910" y="215" />
              <mxPoint x="910" y="415" />
            </Array>
          </mxGeometry>
        </mxCell>
        <mxCell id="YIC2ijclVwNBks27Vdmv-5" style="edgeStyle=orthogonalEdgeStyle;rounded=0;orthogonalLoop=1;jettySize=auto;html=1;entryX=1;entryY=0.5;entryDx=0;entryDy=0;" edge="1" parent="1" source="jpVJKen0Qmn309Zhzjyx-8" target="YIC2ijclVwNBks27Vdmv-2">
          <mxGeometry relative="1" as="geometry" />
        </mxCell>
        <mxCell id="YIC2ijclVwNBks27Vdmv-6" style="edgeStyle=orthogonalEdgeStyle;rounded=0;orthogonalLoop=1;jettySize=auto;html=1;entryX=1;entryY=0.5;entryDx=0;entryDy=0;" edge="1" parent="1" source="jpVJKen0Qmn309Zhzjyx-8" target="YIC2ijclVwNBks27Vdmv-3">
          <mxGeometry relative="1" as="geometry" />
        </mxCell>
        <mxCell id="YIC2ijclVwNBks27Vdmv-7" style="edgeStyle=orthogonalEdgeStyle;rounded=0;orthogonalLoop=1;jettySize=auto;html=1;entryX=1;entryY=0.5;entryDx=0;entryDy=0;" edge="1" parent="1" source="jpVJKen0Qmn309Zhzjyx-8" target="YIC2ijclVwNBks27Vdmv-4">
          <mxGeometry relative="1" as="geometry" />
        </mxCell>
        <mxCell id="jpVJKen0Qmn309Zhzjyx-8" value="Formateurs" style="shape=umlActor;verticalLabelPosition=bottom;verticalAlign=top;html=1;outlineConnect=0;" parent="1" vertex="1">
          <mxGeometry x="990" y="185" width="30" height="60" as="geometry" />
        </mxCell>
        <mxCell id="jpVJKen0Qmn309Zhzjyx-35" style="edgeStyle=orthogonalEdgeStyle;rounded=0;orthogonalLoop=1;jettySize=auto;html=1;entryX=1;entryY=0.5;entryDx=0;entryDy=0;" parent="1" source="jpVJKen0Qmn309Zhzjyx-9" target="jpVJKen0Qmn309Zhzjyx-17" edge="1">
          <mxGeometry relative="1" as="geometry" />
        </mxCell>
        <mxCell id="jpVJKen0Qmn309Zhzjyx-36" style="edgeStyle=orthogonalEdgeStyle;rounded=0;orthogonalLoop=1;jettySize=auto;html=1;entryX=1;entryY=0.5;entryDx=0;entryDy=0;" parent="1" source="jpVJKen0Qmn309Zhzjyx-9" target="jpVJKen0Qmn309Zhzjyx-16" edge="1">
          <mxGeometry relative="1" as="geometry" />
        </mxCell>
        <mxCell id="jpVJKen0Qmn309Zhzjyx-37" style="edgeStyle=orthogonalEdgeStyle;rounded=0;orthogonalLoop=1;jettySize=auto;html=1;entryX=1;entryY=0.5;entryDx=0;entryDy=0;" parent="1" source="jpVJKen0Qmn309Zhzjyx-9" target="jpVJKen0Qmn309Zhzjyx-15" edge="1">
          <mxGeometry relative="1" as="geometry" />
        </mxCell>
        <mxCell id="jpVJKen0Qmn309Zhzjyx-38" style="edgeStyle=orthogonalEdgeStyle;rounded=0;orthogonalLoop=1;jettySize=auto;html=1;entryX=1;entryY=0.5;entryDx=0;entryDy=0;" parent="1" source="jpVJKen0Qmn309Zhzjyx-9" target="jpVJKen0Qmn309Zhzjyx-14" edge="1">
          <mxGeometry relative="1" as="geometry" />
        </mxCell>
        <mxCell id="jpVJKen0Qmn309Zhzjyx-39" style="edgeStyle=orthogonalEdgeStyle;rounded=0;orthogonalLoop=1;jettySize=auto;html=1;entryX=1;entryY=0.5;entryDx=0;entryDy=0;" parent="1" source="jpVJKen0Qmn309Zhzjyx-9" target="jpVJKen0Qmn309Zhzjyx-26" edge="1">
          <mxGeometry relative="1" as="geometry" />
        </mxCell>
        <mxCell id="jpVJKen0Qmn309Zhzjyx-40" style="edgeStyle=orthogonalEdgeStyle;rounded=0;orthogonalLoop=1;jettySize=auto;html=1;entryX=1;entryY=0.5;entryDx=0;entryDy=0;" parent="1" source="jpVJKen0Qmn309Zhzjyx-9" target="jpVJKen0Qmn309Zhzjyx-25" edge="1">
          <mxGeometry relative="1" as="geometry" />
        </mxCell>
        <mxCell id="jpVJKen0Qmn309Zhzjyx-41" style="edgeStyle=orthogonalEdgeStyle;rounded=0;orthogonalLoop=1;jettySize=auto;html=1;entryX=1;entryY=0.5;entryDx=0;entryDy=0;" parent="1" source="jpVJKen0Qmn309Zhzjyx-9" target="jpVJKen0Qmn309Zhzjyx-24" edge="1">
          <mxGeometry relative="1" as="geometry" />
        </mxCell>
        <mxCell id="jpVJKen0Qmn309Zhzjyx-42" style="edgeStyle=orthogonalEdgeStyle;rounded=0;orthogonalLoop=1;jettySize=auto;html=1;entryX=1;entryY=0.5;entryDx=0;entryDy=0;" parent="1" source="jpVJKen0Qmn309Zhzjyx-9" target="jpVJKen0Qmn309Zhzjyx-23" edge="1">
          <mxGeometry relative="1" as="geometry" />
        </mxCell>
        <mxCell id="2wMLGbDJbNt9hUACMo2q-5" style="edgeStyle=orthogonalEdgeStyle;rounded=0;orthogonalLoop=1;jettySize=auto;html=1;entryX=1;entryY=0.5;entryDx=0;entryDy=0;" parent="1" source="jpVJKen0Qmn309Zhzjyx-9" target="2wMLGbDJbNt9hUACMo2q-1" edge="1">
          <mxGeometry relative="1" as="geometry" />
        </mxCell>
        <mxCell id="2wMLGbDJbNt9hUACMo2q-6" style="edgeStyle=orthogonalEdgeStyle;rounded=0;orthogonalLoop=1;jettySize=auto;html=1;entryX=1;entryY=0.5;entryDx=0;entryDy=0;" parent="1" source="jpVJKen0Qmn309Zhzjyx-9" target="2wMLGbDJbNt9hUACMo2q-2" edge="1">
          <mxGeometry relative="1" as="geometry" />
        </mxCell>
        <mxCell id="2wMLGbDJbNt9hUACMo2q-7" style="edgeStyle=orthogonalEdgeStyle;rounded=0;orthogonalLoop=1;jettySize=auto;html=1;entryX=1;entryY=0.5;entryDx=0;entryDy=0;" parent="1" source="jpVJKen0Qmn309Zhzjyx-9" target="2wMLGbDJbNt9hUACMo2q-3" edge="1">
          <mxGeometry relative="1" as="geometry" />
        </mxCell>
        <mxCell id="2wMLGbDJbNt9hUACMo2q-8" style="edgeStyle=orthogonalEdgeStyle;rounded=0;orthogonalLoop=1;jettySize=auto;html=1;entryX=1;entryY=0.5;entryDx=0;entryDy=0;" parent="1" source="jpVJKen0Qmn309Zhzjyx-9" target="2wMLGbDJbNt9hUACMo2q-4" edge="1">
          <mxGeometry relative="1" as="geometry" />
        </mxCell>
        <mxCell id="jpVJKen0Qmn309Zhzjyx-9" value="Administrateur" style="shape=umlActor;verticalLabelPosition=bottom;verticalAlign=top;html=1;outlineConnect=0;" parent="1" vertex="1">
          <mxGeometry x="990" y="860" width="30" height="60" as="geometry" />
        </mxCell>
        <mxCell id="jpVJKen0Qmn309Zhzjyx-62" style="rounded=0;orthogonalLoop=1;jettySize=auto;html=1;entryX=0.5;entryY=0;entryDx=0;entryDy=0;edgeStyle=orthogonalEdgeStyle;curved=1;dashed=1;" parent="1" source="jpVJKen0Qmn309Zhzjyx-10" target="jpVJKen0Qmn309Zhzjyx-32" edge="1">
          <mxGeometry relative="1" as="geometry" />
        </mxCell>
        <mxCell id="jpVJKen0Qmn309Zhzjyx-63" value="include" style="edgeLabel;html=1;align=center;verticalAlign=middle;resizable=0;points=[];" parent="jpVJKen0Qmn309Zhzjyx-62" vertex="1" connectable="0">
          <mxGeometry x="0.0891" y="-23" relative="1" as="geometry">
            <mxPoint as="offset" />
          </mxGeometry>
        </mxCell>
        <mxCell id="jpVJKen0Qmn309Zhzjyx-10" value="CrÃ©er un ticket" style="ellipse;whiteSpace=wrap;html=1;" parent="1" vertex="1">
          <mxGeometry x="260" y="80" width="140" height="70" as="geometry" />
        </mxCell>
        <mxCell id="jpVJKen0Qmn309Zhzjyx-60" style="rounded=0;orthogonalLoop=1;jettySize=auto;html=1;entryX=0.5;entryY=0;entryDx=0;entryDy=0;exitX=1;exitY=1;exitDx=0;exitDy=0;dashed=1;" parent="1" source="jpVJKen0Qmn309Zhzjyx-11" target="jpVJKen0Qmn309Zhzjyx-32" edge="1">
          <mxGeometry relative="1" as="geometry" />
        </mxCell>
        <mxCell id="jpVJKen0Qmn309Zhzjyx-61" value="include" style="edgeLabel;html=1;align=center;verticalAlign=middle;resizable=0;points=[];" parent="jpVJKen0Qmn309Zhzjyx-60" vertex="1" connectable="0">
          <mxGeometry x="-0.0966" relative="1" as="geometry">
            <mxPoint as="offset" />
          </mxGeometry>
        </mxCell>
        <mxCell id="jpVJKen0Qmn309Zhzjyx-11" value="Voir notifications" style="ellipse;whiteSpace=wrap;html=1;" parent="1" vertex="1">
          <mxGeometry x="260" y="180" width="140" height="70" as="geometry" />
        </mxCell>
        <mxCell id="jpVJKen0Qmn309Zhzjyx-58" style="edgeStyle=orthogonalEdgeStyle;rounded=0;orthogonalLoop=1;jettySize=auto;html=1;dashed=1;curved=1;" parent="1" source="jpVJKen0Qmn309Zhzjyx-12" target="jpVJKen0Qmn309Zhzjyx-32" edge="1">
          <mxGeometry relative="1" as="geometry" />
        </mxCell>
        <mxCell id="jpVJKen0Qmn309Zhzjyx-67" value="include" style="edgeLabel;html=1;align=center;verticalAlign=middle;resizable=0;points=[];" parent="jpVJKen0Qmn309Zhzjyx-58" vertex="1" connectable="0">
          <mxGeometry x="0.266" y="-31" relative="1" as="geometry">
            <mxPoint as="offset" />
          </mxGeometry>
        </mxCell>
        <mxCell id="jpVJKen0Qmn309Zhzjyx-12" value="Voir rÃ©ponse" style="ellipse;whiteSpace=wrap;html=1;" parent="1" vertex="1">
          <mxGeometry x="260" y="280" width="140" height="70" as="geometry" />
        </mxCell>
        <mxCell id="jpVJKen0Qmn309Zhzjyx-56" style="rounded=0;orthogonalLoop=1;jettySize=auto;html=1;entryX=0;entryY=0.5;entryDx=0;entryDy=0;dashed=1;" parent="1" source="jpVJKen0Qmn309Zhzjyx-13" target="jpVJKen0Qmn309Zhzjyx-32" edge="1">
          <mxGeometry relative="1" as="geometry" />
        </mxCell>
        <mxCell id="jpVJKen0Qmn309Zhzjyx-57" value="include" style="edgeLabel;html=1;align=center;verticalAlign=middle;resizable=0;points=[];" parent="jpVJKen0Qmn309Zhzjyx-56" vertex="1" connectable="0">
          <mxGeometry x="-0.1714" y="-2" relative="1" as="geometry">
            <mxPoint as="offset" />
          </mxGeometry>
        </mxCell>
        <mxCell id="jpVJKen0Qmn309Zhzjyx-13" value="Voir base de connaissance" style="ellipse;whiteSpace=wrap;html=1;" parent="1" vertex="1">
          <mxGeometry x="260" y="380" width="140" height="70" as="geometry" />
        </mxCell>
        <mxCell id="jpVJKen0Qmn309Zhzjyx-80" style="edgeStyle=orthogonalEdgeStyle;rounded=0;orthogonalLoop=1;jettySize=auto;html=1;entryX=0.5;entryY=1;entryDx=0;entryDy=0;dashed=1;" parent="1" source="jpVJKen0Qmn309Zhzjyx-14" target="jpVJKen0Qmn309Zhzjyx-32" edge="1">
          <mxGeometry relative="1" as="geometry" />
        </mxCell>
        <mxCell id="jpVJKen0Qmn309Zhzjyx-88" value="include" style="edgeLabel;html=1;align=center;verticalAlign=middle;resizable=0;points=[];" parent="jpVJKen0Qmn309Zhzjyx-80" vertex="1" connectable="0">
          <mxGeometry x="-0.7665" relative="1" as="geometry">
            <mxPoint y="1" as="offset" />
          </mxGeometry>
        </mxCell>
        <mxCell id="jpVJKen0Qmn309Zhzjyx-14" value="Ajouter&amp;nbsp;rÃ´le" style="ellipse;whiteSpace=wrap;html=1;" parent="1" vertex="1">
          <mxGeometry x="687" y="920" width="140" height="70" as="geometry" />
        </mxCell>
        <mxCell id="jpVJKen0Qmn309Zhzjyx-81" style="edgeStyle=orthogonalEdgeStyle;rounded=0;orthogonalLoop=1;jettySize=auto;html=1;dashed=1;" parent="1" source="jpVJKen0Qmn309Zhzjyx-15" target="jpVJKen0Qmn309Zhzjyx-32" edge="1">
          <mxGeometry relative="1" as="geometry" />
        </mxCell>
        <mxCell id="jpVJKen0Qmn309Zhzjyx-89" value="include" style="edgeLabel;html=1;align=center;verticalAlign=middle;resizable=0;points=[];" parent="jpVJKen0Qmn309Zhzjyx-81" vertex="1" connectable="0">
          <mxGeometry x="-0.8225" y="-2" relative="1" as="geometry">
            <mxPoint as="offset" />
          </mxGeometry>
        </mxCell>
        <mxCell id="jpVJKen0Qmn309Zhzjyx-15" value="Modifier&amp;nbsp;rÃ´le" style="ellipse;whiteSpace=wrap;html=1;" parent="1" vertex="1">
          <mxGeometry x="687" y="1020" width="140" height="70" as="geometry" />
        </mxCell>
        <mxCell id="jpVJKen0Qmn309Zhzjyx-82" style="edgeStyle=orthogonalEdgeStyle;rounded=0;orthogonalLoop=1;jettySize=auto;html=1;dashed=1;" parent="1" source="jpVJKen0Qmn309Zhzjyx-16" edge="1">
          <mxGeometry relative="1" as="geometry">
            <mxPoint x="540" y="520" as="targetPoint" />
          </mxGeometry>
        </mxCell>
        <mxCell id="jpVJKen0Qmn309Zhzjyx-90" value="include" style="edgeLabel;html=1;align=center;verticalAlign=middle;resizable=0;points=[];" parent="jpVJKen0Qmn309Zhzjyx-82" vertex="1" connectable="0">
          <mxGeometry x="-0.8381" relative="1" as="geometry">
            <mxPoint y="1" as="offset" />
          </mxGeometry>
        </mxCell>
        <mxCell id="jpVJKen0Qmn309Zhzjyx-16" value="Supprimer&amp;nbsp;rÃ´le" style="ellipse;whiteSpace=wrap;html=1;" parent="1" vertex="1">
          <mxGeometry x="687" y="1120" width="140" height="70" as="geometry" />
        </mxCell>
        <mxCell id="jpVJKen0Qmn309Zhzjyx-83" style="edgeStyle=orthogonalEdgeStyle;rounded=0;orthogonalLoop=1;jettySize=auto;html=1;entryX=0.5;entryY=1;entryDx=0;entryDy=0;dashed=1;" parent="1" source="jpVJKen0Qmn309Zhzjyx-17" target="jpVJKen0Qmn309Zhzjyx-32" edge="1">
          <mxGeometry relative="1" as="geometry" />
        </mxCell>
        <mxCell id="jpVJKen0Qmn309Zhzjyx-91" value="include" style="edgeLabel;html=1;align=center;verticalAlign=middle;resizable=0;points=[];" parent="jpVJKen0Qmn309Zhzjyx-83" vertex="1" connectable="0">
          <mxGeometry x="-0.8739" y="-2" relative="1" as="geometry">
            <mxPoint as="offset" />
          </mxGeometry>
        </mxCell>
        <mxCell id="jpVJKen0Qmn309Zhzjyx-17" value="Voir rÃ´le" style="ellipse;whiteSpace=wrap;html=1;" parent="1" vertex="1">
          <mxGeometry x="687" y="1220" width="140" height="70" as="geometry" />
        </mxCell>
        <mxCell id="jpVJKen0Qmn309Zhzjyx-76" style="edgeStyle=orthogonalEdgeStyle;rounded=0;orthogonalLoop=1;jettySize=auto;html=1;entryX=0.5;entryY=1;entryDx=0;entryDy=0;dashed=1;" parent="1" source="jpVJKen0Qmn309Zhzjyx-23" target="jpVJKen0Qmn309Zhzjyx-32" edge="1">
          <mxGeometry relative="1" as="geometry" />
        </mxCell>
        <mxCell id="jpVJKen0Qmn309Zhzjyx-84" value="include" style="edgeLabel;html=1;align=center;verticalAlign=middle;resizable=0;points=[];" parent="jpVJKen0Qmn309Zhzjyx-76" vertex="1" connectable="0">
          <mxGeometry x="-0.4499" y="-3" relative="1" as="geometry">
            <mxPoint as="offset" />
          </mxGeometry>
        </mxCell>
        <mxCell id="jpVJKen0Qmn309Zhzjyx-23" value="Ajouter utilisateur" style="ellipse;whiteSpace=wrap;html=1;" parent="1" vertex="1">
          <mxGeometry x="687" y="520" width="140" height="70" as="geometry" />
        </mxCell>
        <mxCell id="jpVJKen0Qmn309Zhzjyx-77" style="edgeStyle=orthogonalEdgeStyle;rounded=0;orthogonalLoop=1;jettySize=auto;html=1;entryX=0.5;entryY=1;entryDx=0;entryDy=0;dashed=1;" parent="1" source="jpVJKen0Qmn309Zhzjyx-24" target="jpVJKen0Qmn309Zhzjyx-32" edge="1">
          <mxGeometry relative="1" as="geometry" />
        </mxCell>
        <mxCell id="jpVJKen0Qmn309Zhzjyx-85" value="include" style="edgeLabel;html=1;align=center;verticalAlign=middle;resizable=0;points=[];" parent="jpVJKen0Qmn309Zhzjyx-77" vertex="1" connectable="0">
          <mxGeometry x="-0.6608" relative="1" as="geometry">
            <mxPoint y="1" as="offset" />
          </mxGeometry>
        </mxCell>
        <mxCell id="jpVJKen0Qmn309Zhzjyx-24" value="Modifier utilisateur" style="ellipse;whiteSpace=wrap;html=1;" parent="1" vertex="1">
          <mxGeometry x="687" y="620" width="140" height="70" as="geometry" />
        </mxCell>
        <mxCell id="jpVJKen0Qmn309Zhzjyx-78" style="edgeStyle=orthogonalEdgeStyle;rounded=0;orthogonalLoop=1;jettySize=auto;html=1;entryX=0.5;entryY=1;entryDx=0;entryDy=0;dashed=1;" parent="1" source="jpVJKen0Qmn309Zhzjyx-25" target="jpVJKen0Qmn309Zhzjyx-32" edge="1">
          <mxGeometry relative="1" as="geometry" />
        </mxCell>
        <mxCell id="jpVJKen0Qmn309Zhzjyx-86" value="include" style="edgeLabel;html=1;align=center;verticalAlign=middle;resizable=0;points=[];" parent="jpVJKen0Qmn309Zhzjyx-78" vertex="1" connectable="0">
          <mxGeometry x="-0.6775" y="3" relative="1" as="geometry">
            <mxPoint as="offset" />
          </mxGeometry>
        </mxCell>
        <mxCell id="jpVJKen0Qmn309Zhzjyx-25" value="Supprimer utilisateur" style="ellipse;whiteSpace=wrap;html=1;" parent="1" vertex="1">
          <mxGeometry x="687" y="720" width="140" height="70" as="geometry" />
        </mxCell>
        <mxCell id="jpVJKen0Qmn309Zhzjyx-79" style="edgeStyle=orthogonalEdgeStyle;rounded=0;orthogonalLoop=1;jettySize=auto;html=1;entryX=0.5;entryY=1;entryDx=0;entryDy=0;dashed=1;" parent="1" source="jpVJKen0Qmn309Zhzjyx-26" target="jpVJKen0Qmn309Zhzjyx-32" edge="1">
          <mxGeometry relative="1" as="geometry" />
        </mxCell>
        <mxCell id="jpVJKen0Qmn309Zhzjyx-87" value="include" style="edgeLabel;html=1;align=center;verticalAlign=middle;resizable=0;points=[];" parent="jpVJKen0Qmn309Zhzjyx-79" vertex="1" connectable="0">
          <mxGeometry x="-0.6873" y="-2" relative="1" as="geometry">
            <mxPoint as="offset" />
          </mxGeometry>
        </mxCell>
        <mxCell id="jpVJKen0Qmn309Zhzjyx-26" value="Voir utilisateur" style="ellipse;whiteSpace=wrap;html=1;" parent="1" vertex="1">
          <mxGeometry x="687" y="820" width="140" height="70" as="geometry" />
        </mxCell>
        <mxCell id="jpVJKen0Qmn309Zhzjyx-52" style="edgeStyle=orthogonalEdgeStyle;rounded=0;orthogonalLoop=1;jettySize=auto;html=1;dashed=1;" parent="1" source="jpVJKen0Qmn309Zhzjyx-29" target="jpVJKen0Qmn309Zhzjyx-32" edge="1">
          <mxGeometry relative="1" as="geometry">
            <Array as="points">
              <mxPoint x="538" y="230" />
              <mxPoint x="538" y="230" />
            </Array>
          </mxGeometry>
        </mxCell>
        <mxCell id="jpVJKen0Qmn309Zhzjyx-55" value="include" style="edgeLabel;html=1;align=center;verticalAlign=middle;resizable=0;points=[];" parent="jpVJKen0Qmn309Zhzjyx-52" vertex="1" connectable="0">
          <mxGeometry x="-0.1136" relative="1" as="geometry">
            <mxPoint as="offset" />
          </mxGeometry>
        </mxCell>
        <mxCell id="jpVJKen0Qmn309Zhzjyx-53" style="edgeStyle=orthogonalEdgeStyle;rounded=0;orthogonalLoop=1;jettySize=auto;html=1;dashed=1;dashPattern=8 8;" parent="1" source="jpVJKen0Qmn309Zhzjyx-29" target="jpVJKen0Qmn309Zhzjyx-10" edge="1">
          <mxGeometry relative="1" as="geometry" />
        </mxCell>
        <mxCell id="jpVJKen0Qmn309Zhzjyx-54" value="include" style="edgeLabel;html=1;align=center;verticalAlign=middle;resizable=0;points=[];" parent="jpVJKen0Qmn309Zhzjyx-53" vertex="1" connectable="0">
          <mxGeometry x="-0.175" y="-1" relative="1" as="geometry">
            <mxPoint as="offset" />
          </mxGeometry>
        </mxCell>
        <mxCell id="jpVJKen0Qmn309Zhzjyx-29" value="SÃ©lection de la catÃ©gorie" style="ellipse;whiteSpace=wrap;html=1;" parent="1" vertex="1">
          <mxGeometry x="480" y="80" width="140" height="70" as="geometry" />
        </mxCell>
        <mxCell id="jpVJKen0Qmn309Zhzjyx-72" style="rounded=0;orthogonalLoop=1;jettySize=auto;html=1;entryX=0.5;entryY=0;entryDx=0;entryDy=0;dashed=1;" parent="1" source="jpVJKen0Qmn309Zhzjyx-30" target="jpVJKen0Qmn309Zhzjyx-32" edge="1">
          <mxGeometry relative="1" as="geometry" />
        </mxCell>
        <mxCell id="jpVJKen0Qmn309Zhzjyx-73" value="include" style="edgeLabel;html=1;align=center;verticalAlign=middle;resizable=0;points=[];" parent="jpVJKen0Qmn309Zhzjyx-72" vertex="1" connectable="0">
          <mxGeometry x="-0.3832" y="3" relative="1" as="geometry">
            <mxPoint as="offset" />
          </mxGeometry>
        </mxCell>
        <mxCell id="jpVJKen0Qmn309Zhzjyx-74" style="edgeStyle=orthogonalEdgeStyle;rounded=0;orthogonalLoop=1;jettySize=auto;html=1;entryX=0.5;entryY=1;entryDx=0;entryDy=0;exitX=0.5;exitY=1;exitDx=0;exitDy=0;dashed=1;" parent="1" source="jpVJKen0Qmn309Zhzjyx-30" target="jpVJKen0Qmn309Zhzjyx-10" edge="1">
          <mxGeometry relative="1" as="geometry">
            <Array as="points">
              <mxPoint x="757" y="170" />
              <mxPoint x="330" y="170" />
            </Array>
          </mxGeometry>
        </mxCell>
        <mxCell id="jpVJKen0Qmn309Zhzjyx-75" value="include" style="edgeLabel;html=1;align=center;verticalAlign=middle;resizable=0;points=[];" parent="jpVJKen0Qmn309Zhzjyx-74" vertex="1" connectable="0">
          <mxGeometry x="-0.4231" y="3" relative="1" as="geometry">
            <mxPoint as="offset" />
          </mxGeometry>
        </mxCell>
        <mxCell id="jpVJKen0Qmn309Zhzjyx-30" value="Voir ticket" style="ellipse;whiteSpace=wrap;html=1;" parent="1" vertex="1">
          <mxGeometry x="687" y="90" width="140" height="70" as="geometry" />
        </mxCell>
        <mxCell id="jpVJKen0Qmn309Zhzjyx-70" style="edgeStyle=orthogonalEdgeStyle;rounded=0;orthogonalLoop=1;jettySize=auto;html=1;entryX=1;entryY=0.5;entryDx=0;entryDy=0;dashed=1;" parent="1" source="jpVJKen0Qmn309Zhzjyx-31" target="jpVJKen0Qmn309Zhzjyx-32" edge="1">
          <mxGeometry relative="1" as="geometry">
            <Array as="points">
              <mxPoint x="760" y="485" />
            </Array>
          </mxGeometry>
        </mxCell>
        <mxCell id="jpVJKen0Qmn309Zhzjyx-71" value="include" style="edgeLabel;html=1;align=center;verticalAlign=middle;resizable=0;points=[];" parent="jpVJKen0Qmn309Zhzjyx-70" vertex="1" connectable="0">
          <mxGeometry x="-0.127" y="1" relative="1" as="geometry">
            <mxPoint as="offset" />
          </mxGeometry>
        </mxCell>
        <mxCell id="jpVJKen0Qmn309Zhzjyx-92" style="edgeStyle=orthogonalEdgeStyle;rounded=0;orthogonalLoop=1;jettySize=auto;html=1;entryX=1;entryY=0.5;entryDx=0;entryDy=0;dashed=1;" parent="1" source="jpVJKen0Qmn309Zhzjyx-31" target="jpVJKen0Qmn309Zhzjyx-12" edge="1">
          <mxGeometry relative="1" as="geometry" />
        </mxCell>
        <mxCell id="jpVJKen0Qmn309Zhzjyx-93" value="include" style="edgeLabel;html=1;align=center;verticalAlign=middle;resizable=0;points=[];" parent="jpVJKen0Qmn309Zhzjyx-92" vertex="1" connectable="0">
          <mxGeometry x="-0.3656" relative="1" as="geometry">
            <mxPoint as="offset" />
          </mxGeometry>
        </mxCell>
        <mxCell id="jpVJKen0Qmn309Zhzjyx-31" value="Faire une rÃ©ponse" style="ellipse;whiteSpace=wrap;html=1;" parent="1" vertex="1">
          <mxGeometry x="687" y="280" width="140" height="70" as="geometry" />
        </mxCell>
        <mxCell id="jpVJKen0Qmn309Zhzjyx-32" value="Authentification" style="ellipse;whiteSpace=wrap;html=1;" parent="1" vertex="1">
          <mxGeometry x="467.5" y="450" width="140" height="70" as="geometry" />
        </mxCell>
        <mxCell id="2wMLGbDJbNt9hUACMo2q-9" style="edgeStyle=orthogonalEdgeStyle;rounded=0;orthogonalLoop=1;jettySize=auto;html=1;entryX=0.5;entryY=1;entryDx=0;entryDy=0;dashed=1;" parent="1" source="2wMLGbDJbNt9hUACMo2q-1" target="jpVJKen0Qmn309Zhzjyx-32" edge="1">
          <mxGeometry relative="1" as="geometry" />
        </mxCell>
        <mxCell id="2wMLGbDJbNt9hUACMo2q-13" value="include" style="edgeLabel;html=1;align=center;verticalAlign=middle;resizable=0;points=[];" parent="2wMLGbDJbNt9hUACMo2q-9" vertex="1" connectable="0">
          <mxGeometry x="-0.8782" y="2" relative="1" as="geometry">
            <mxPoint as="offset" />
          </mxGeometry>
        </mxCell>
        <mxCell id="2wMLGbDJbNt9hUACMo2q-1" value="Ajouter&amp;nbsp;catÃ©gorie" style="ellipse;whiteSpace=wrap;html=1;" parent="1" vertex="1">
          <mxGeometry x="687" y="1320" width="140" height="70" as="geometry" />
        </mxCell>
        <mxCell id="2wMLGbDJbNt9hUACMo2q-10" style="edgeStyle=orthogonalEdgeStyle;rounded=0;orthogonalLoop=1;jettySize=auto;html=1;dashed=1;" parent="1" source="2wMLGbDJbNt9hUACMo2q-2" edge="1">
          <mxGeometry relative="1" as="geometry">
            <mxPoint x="540" y="520" as="targetPoint" />
          </mxGeometry>
        </mxCell>
        <mxCell id="2wMLGbDJbNt9hUACMo2q-14" value="include" style="edgeLabel;html=1;align=center;verticalAlign=middle;resizable=0;points=[];" parent="2wMLGbDJbNt9hUACMo2q-10" vertex="1" connectable="0">
          <mxGeometry x="-0.887" y="2" relative="1" as="geometry">
            <mxPoint as="offset" />
          </mxGeometry>
        </mxCell>
        <mxCell id="2wMLGbDJbNt9hUACMo2q-2" value="Modifier catÃ©gorie" style="ellipse;whiteSpace=wrap;html=1;" parent="1" vertex="1">
          <mxGeometry x="687" y="1420" width="140" height="70" as="geometry" />
        </mxCell>
        <mxCell id="2wMLGbDJbNt9hUACMo2q-11" style="edgeStyle=orthogonalEdgeStyle;rounded=0;orthogonalLoop=1;jettySize=auto;html=1;entryX=0.5;entryY=1;entryDx=0;entryDy=0;dashed=1;" parent="1" source="2wMLGbDJbNt9hUACMo2q-3" target="jpVJKen0Qmn309Zhzjyx-32" edge="1">
          <mxGeometry relative="1" as="geometry" />
        </mxCell>
        <mxCell id="2wMLGbDJbNt9hUACMo2q-15" value="include" style="edgeLabel;html=1;align=center;verticalAlign=middle;resizable=0;points=[];" parent="2wMLGbDJbNt9hUACMo2q-11" vertex="1" connectable="0">
          <mxGeometry x="-0.8809" relative="1" as="geometry">
            <mxPoint as="offset" />
          </mxGeometry>
        </mxCell>
        <mxCell id="2wMLGbDJbNt9hUACMo2q-3" value="Supprimer catÃ©gorie" style="ellipse;whiteSpace=wrap;html=1;" parent="1" vertex="1">
          <mxGeometry x="687" y="1520" width="140" height="70" as="geometry" />
        </mxCell>
        <mxCell id="2wMLGbDJbNt9hUACMo2q-12" style="edgeStyle=orthogonalEdgeStyle;rounded=0;orthogonalLoop=1;jettySize=auto;html=1;entryX=0.5;entryY=1;entryDx=0;entryDy=0;dashed=1;" parent="1" source="2wMLGbDJbNt9hUACMo2q-4" target="jpVJKen0Qmn309Zhzjyx-32" edge="1">
          <mxGeometry relative="1" as="geometry" />
        </mxCell>
        <mxCell id="2wMLGbDJbNt9hUACMo2q-16" value="include" style="edgeLabel;html=1;align=center;verticalAlign=middle;resizable=0;points=[];" parent="2wMLGbDJbNt9hUACMo2q-12" vertex="1" connectable="0">
          <mxGeometry x="-0.8865" y="-1" relative="1" as="geometry">
            <mxPoint as="offset" />
          </mxGeometry>
        </mxCell>
        <mxCell id="2wMLGbDJbNt9hUACMo2q-4" value="Voir catÃ©gorie" style="ellipse;whiteSpace=wrap;html=1;" parent="1" vertex="1">
          <mxGeometry x="687" y="1620" width="140" height="70" as="geometry" />
        </mxCell>
        <mxCell id="YIC2ijclVwNBks27Vdmv-8" style="edgeStyle=orthogonalEdgeStyle;rounded=0;orthogonalLoop=1;jettySize=auto;html=1;entryX=0.5;entryY=0;entryDx=0;entryDy=0;dashed=1;" edge="1" parent="1" source="YIC2ijclVwNBks27Vdmv-2" target="jpVJKen0Qmn309Zhzjyx-32">
          <mxGeometry relative="1" as="geometry" />
        </mxCell>
        <mxCell id="YIC2ijclVwNBks27Vdmv-13" value="include" style="edgeLabel;html=1;align=center;verticalAlign=middle;resizable=0;points=[];" vertex="1" connectable="0" parent="YIC2ijclVwNBks27Vdmv-8">
          <mxGeometry x="-0.8374" y="-1" relative="1" as="geometry">
            <mxPoint as="offset" />
          </mxGeometry>
        </mxCell>
        <mxCell id="YIC2ijclVwNBks27Vdmv-2" value="CrÃ©er base de connaissance" style="ellipse;whiteSpace=wrap;html=1;" vertex="1" parent="1">
          <mxGeometry x="687" y="-10" width="140" height="70" as="geometry" />
        </mxCell>
        <mxCell id="YIC2ijclVwNBks27Vdmv-9" style="edgeStyle=orthogonalEdgeStyle;rounded=0;orthogonalLoop=1;jettySize=auto;html=1;dashed=1;" edge="1" parent="1" source="YIC2ijclVwNBks27Vdmv-3">
          <mxGeometry relative="1" as="geometry">
            <mxPoint x="540" y="452.3529411764706" as="targetPoint" />
          </mxGeometry>
        </mxCell>
        <mxCell id="YIC2ijclVwNBks27Vdmv-12" value="include" style="edgeLabel;html=1;align=center;verticalAlign=middle;resizable=0;points=[];" vertex="1" connectable="0" parent="YIC2ijclVwNBks27Vdmv-9">
          <mxGeometry x="-0.8668" relative="1" as="geometry">
            <mxPoint as="offset" />
          </mxGeometry>
        </mxCell>
        <mxCell id="YIC2ijclVwNBks27Vdmv-3" value="Modifier base de connaissance" style="ellipse;whiteSpace=wrap;html=1;" vertex="1" parent="1">
          <mxGeometry x="687" y="-120" width="140" height="70" as="geometry" />
        </mxCell>
        <mxCell id="YIC2ijclVwNBks27Vdmv-10" style="edgeStyle=orthogonalEdgeStyle;rounded=0;orthogonalLoop=1;jettySize=auto;html=1;dashed=1;" edge="1" parent="1" source="YIC2ijclVwNBks27Vdmv-4">
          <mxGeometry relative="1" as="geometry">
            <mxPoint x="540" y="454.70588235294116" as="targetPoint" />
          </mxGeometry>
        </mxCell>
        <mxCell id="YIC2ijclVwNBks27Vdmv-11" value="include" style="edgeLabel;html=1;align=center;verticalAlign=middle;resizable=0;points=[];" vertex="1" connectable="0" parent="YIC2ijclVwNBks27Vdmv-10">
          <mxGeometry x="-0.8842" y="2" relative="1" as="geometry">
            <mxPoint as="offset" />
          </mxGeometry>
        </mxCell>
        <mxCell id="YIC2ijclVwNBks27Vdmv-4" value="Supprimer base de connaissance" style="ellipse;whiteSpace=wrap;html=1;" vertex="1" parent="1">
          <mxGeometry x="687" y="-220" width="140" height="70" as="geometry" />
        </mxCell>
      </root>
    </mxGraphModel>
  </diagram>
</mxfile>
